<svg xmlns="http://www.w3.org/2000/svg" width="23" height="21"><defs><filter id="a"><feFlood flood-color="#2E86C4" flood-opacity="1" result="floodOut"/><feComposite operator="atop" in="floodOut" in2="SourceGraphic" result="compOut"/><feBlend in="compOut" in2="SourceGraphic"/></filter></defs><g filter="url(#a)"><path fill-rule="evenodd" fill="#FFF" d="M5.51 20.138H.895V6.804H5.51v13.334zM3.084 5.136h-.033c-1.67 0-2.753-1.019-2.753-2.311C.298 1.509 1.414.51 3.117.51c1.702 0 2.75.996 2.783 2.312 0 1.292-1.081 2.314-2.816 2.314zm19.657 14.975h-4.96v-6.9c0-1.806-.775-3.039-2.482-3.039-1.306 0-2.03.831-2.369 1.633-.126.288-.107.689-.107 1.09v7.216H7.909s.064-12.223 0-13.336h4.914v2.094c.291-.915 1.861-2.221 4.367-2.221 3.109 0 5.551 1.919 5.551 6.049v7.414z"/></g></svg>