<svg xmlns="http://www.w3.org/2000/svg" width="17" height="23"><defs><filter id="a"><feFlood flood-color="#FF262D" flood-opacity="1" result="floodOut"/><feComposite operator="atop" in="floodOut" in2="SourceGraphic" result="compOut"/><feBlend in="compOut" in2="SourceGraphic"/></filter></defs><g filter="url(#a)"><path fill-rule="evenodd" fill="#FFF" d="M9.133.358C3.526.358.7 4.745.7 8.402c0 2.216.768 4.186 2.416 4.92.27.121.512.005.591-.322.054-.226.183-.796.241-1.033.079-.323.048-.435-.17-.718-.475-.611-.779-1.404-.779-2.526 0-3.254 2.232-6.167 5.81-6.167 3.17 0 4.911 2.113 4.911 4.935 0 3.713-1.506 6.848-3.742 6.848-1.234 0-2.159-1.115-1.862-2.482.354-1.63 1.042-3.391 1.042-4.569 0-1.055-.519-1.934-1.592-1.934-1.262 0-2.276 1.425-2.276 3.334 0 1.215.376 2.037.376 2.037l-1.518 7.018c-.45 2.083-.067 4.636-.035 4.894a.154.154 0 00.281.073c.116-.166 1.619-2.19 2.13-4.214.145-.572.83-3.539.83-3.539.41.853 1.609 1.605 2.883 1.605 3.794 0 6.367-3.774 6.367-8.825 0-3.821-2.965-7.379-7.471-7.379z"/></g></svg>