<svg xmlns="http://www.w3.org/2000/svg" width="28" height="17"><defs><filter id="a"><feFlood flood-color="#DA4735" flood-opacity="1" result="floodOut"/><feComposite operator="atop" in="floodOut" in2="SourceGraphic" result="compOut"/><feBlend in="compOut" in2="SourceGraphic"/></filter></defs><g filter="url(#a)"><path fill-rule="evenodd" fill="#FFF" d="M24.438 9.428v2.887h-2.123V9.428h-3.057V7.423h3.057V4.616h2.123v2.807h2.971v2.005h-2.971zM8.985 16.967c-4.736 0-8.576-3.627-8.576-8.1 0-4.474 3.84-8.1 8.576-8.1 2.222 0 4.247.798 5.77 2.108-1.794 1.601-1.735 1.696-2.441 2.362-.881-.689-1.842-1.183-3.329-1.183-2.814 0-5.01 2.155-5.01 4.813 0 2.657 2.196 4.812 5.01 4.812 2.78 0 3.909-1.133 4.636-3.212-1.342 0-4.636.004-4.636.004V7.263h8.236c.573 3.881-1.157 9.704-8.236 9.704z"/></g></svg>