<svg xmlns="http://www.w3.org/2000/svg" width="24" height="24"><defs><filter id="a"><feFlood flood-color="#C88F6F" flood-opacity="1" result="floodOut"/><feComposite operator="atop" in="floodOut" in2="SourceGraphic" result="compOut"/><feBlend in="compOut" in2="SourceGraphic"/></filter></defs><g filter="url(#a)"><path fill-rule="evenodd" fill="#FFF" d="M18.991.95H5.1C2.686.95.723 2.905.723 5.309v13.837c0 2.404 1.963 4.359 4.377 4.359h13.891c2.414 0 4.377-1.955 4.377-4.359V5.309c0-2.404-1.963-4.359-4.377-4.359zm1.54 2.39L21 3.337v3.551l-3.581.011-.013-3.55 3.125-.009zM8.893 9.837a3.307 3.307 0 015.988 1.921 3.304 3.304 0 01-3.307 3.293 3.303 3.303 0 01-3.307-3.293c0-.717.234-1.379.626-1.921zm12.593 9.402c0 1.148-1.664 2.385-2.836 2.385l-13.879.006c-1.195 0-2.161-.705-2.161-1.885l-.005-9.392 3.779-.005c-.292.709-.86 1.486-.86 2.296 0 3.365 3.107 5.75 6.521 5.75 3.415 0 5.636-2.541 5.636-5.813 0-.788-.162-1.539-.446-2.228h4.251v8.886z"/></g></svg>