<svg xmlns="http://www.w3.org/2000/svg" width="23" height="18"><defs><filter id="a"><feFlood flood-color="#31BAE2" flood-opacity="1" result="floodOut"/><feComposite operator="atop" in="floodOut" in2="SourceGraphic" result="compOut"/><feBlend in="compOut" in2="SourceGraphic"/></filter></defs><g filter="url(#a)"><path fill-rule="evenodd" fill="#FFF" d="M22.942 2.324a9.912 9.912 0 01-2.646.668c.952-.525 1.682-1.356 2.025-2.346a9.7 9.7 0 01-2.926 1.028C18.556.849 17.357.335 16.032.335c-2.543 0-4.606 1.899-4.606 4.241 0 .333.039.656.118.966-3.829-.178-7.223-1.864-9.497-4.433a3.991 3.991 0 00-.624 2.136c0 1.47.814 2.768 2.051 3.529a4.927 4.927 0 01-2.089-.529v.053c0 2.054 1.588 3.769 3.698 4.158a4.896 4.896 0 01-1.215.149 4.92 4.92 0 01-.866-.076c.585 1.685 2.287 2.912 4.303 2.945-1.577 1.138-3.564 1.816-5.722 1.816-.372 0-.74-.019-1.099-.059a13.884 13.884 0 007.062 1.906c8.477 0 13.11-6.463 13.11-12.069 0-.184-.004-.367-.013-.548a8.975 8.975 0 002.299-2.196"/></g></svg>