<svg xmlns="http://www.w3.org/2000/svg" xmlns:xlink="http://www.w3.org/1999/xlink"><defs><filter id="a"><feFlood flood-color="#5783DD" flood-opacity="1" result="floodOut"/><feComposite operator="atop" in="floodOut" in2="SourceGraphic" result="compOut"/><feBlend in="compOut" in2="SourceGraphic"/></filter><filter id="a"><feFlood flood-color="#DA4735" flood-opacity="1" result="floodOut"/><feComposite operator="atop" in="floodOut" in2="SourceGraphic" result="compOut"/><feBlend in="compOut" in2="SourceGraphic"/></filter><filter id="a"><feFlood flood-color="#C88F6F" flood-opacity="1" result="floodOut"/><feComposite operator="atop" in="floodOut" in2="SourceGraphic" result="compOut"/><feBlend in="compOut" in2="SourceGraphic"/></filter><filter id="a"><feFlood flood-color="#2E86C4" flood-opacity="1" result="floodOut"/><feComposite operator="atop" in="floodOut" in2="SourceGraphic" result="compOut"/><feBlend in="compOut" in2="SourceGraphic"/></filter><filter id="a"><feFlood flood-color="#EBA747" flood-opacity="1" result="floodOut"/><feComposite operator="atop" in="floodOut" in2="SourceGraphic" result="compOut"/><feBlend in="compOut" in2="SourceGraphic"/></filter><filter id="a"><feFlood flood-color="#FF262D" flood-opacity="1" result="floodOut"/><feComposite operator="atop" in="floodOut" in2="SourceGraphic" result="compOut"/><feBlend in="compOut" in2="SourceGraphic"/></filter><filter id="a"><feFlood flood-color="#31BAE2" flood-opacity="1" result="floodOut"/><feComposite operator="atop" in="floodOut" in2="SourceGraphic" result="compOut"/><feBlend in="compOut" in2="SourceGraphic"/></filter><filter id="a"><feFlood flood-color="#FF3136" flood-opacity="1" result="floodOut"/><feComposite operator="atop" in="floodOut" in2="SourceGraphic" result="compOut"/><feBlend in="compOut" in2="SourceGraphic"/></filter></defs><symbol id="icon-facebook"><g filter="url(#a)"><path fill-rule="evenodd" fill="#FFF" d="M.374 7.866h2.203V5.61c0-.995.024-2.529.71-3.48C4.009 1.124 5.001.439 6.707.439c2.779 0 3.95.419 3.95.419l-.551 3.439s-.918-.279-1.775-.279c-.857 0-1.624.323-1.624 1.226v2.622h3.514l-.246 3.36H6.707v11.672h-4.13V11.226H.374v-3.36z"/></g></symbol><symbol id="icon-gplus"><g filter="url(#a)"><path fill-rule="evenodd" fill="#FFF" d="M24.438 9.428v2.887h-2.123V9.428h-3.057V7.423h3.057V4.616h2.123v2.807h2.971v2.005h-2.971zM8.985 16.967c-4.736 0-8.576-3.627-8.576-8.1 0-4.474 3.84-8.1 8.576-8.1 2.222 0 4.247.798 5.77 2.108-1.794 1.601-1.735 1.696-2.441 2.362-.881-.689-1.842-1.183-3.329-1.183-2.814 0-5.01 2.155-5.01 4.813 0 2.657 2.196 4.812 5.01 4.812 2.78 0 3.909-1.133 4.636-3.212-1.342 0-4.636.004-4.636.004V7.263h8.236c.573 3.881-1.157 9.704-8.236 9.704z"/></g></symbol><symbol id="icon-instagramm"><g filter="url(#a)"><path fill-rule="evenodd" fill="#FFF" d="M18.991.95H5.1C2.686.95.723 2.905.723 5.309v13.837c0 2.404 1.963 4.359 4.377 4.359h13.891c2.414 0 4.377-1.955 4.377-4.359V5.309c0-2.404-1.963-4.359-4.377-4.359zm1.54 2.39L21 3.337v3.551l-3.581.011-.013-3.55 3.125-.009zM8.893 9.837a3.307 3.307 0 015.988 1.921 3.304 3.304 0 01-3.307 3.293 3.303 3.303 0 01-3.307-3.293c0-.717.234-1.379.626-1.921zm12.593 9.402c0 1.148-1.664 2.385-2.836 2.385l-13.879.006c-1.195 0-2.161-.705-2.161-1.885l-.005-9.392 3.779-.005c-.292.709-.86 1.486-.86 2.296 0 3.365 3.107 5.75 6.521 5.75 3.415 0 5.636-2.541 5.636-5.813 0-.788-.162-1.539-.446-2.228h4.251v8.886z"/></g></symbol><symbol id="icon-linkedin"><g filter="url(#a)"><path fill-rule="evenodd" fill="#FFF" d="M5.51 20.138H.895V6.804H5.51v13.334zM3.084 5.136h-.033c-1.67 0-2.753-1.019-2.753-2.311C.298 1.509 1.414.51 3.117.51c1.702 0 2.75.996 2.783 2.312 0 1.292-1.081 2.314-2.816 2.314zm19.657 14.975h-4.96v-6.9c0-1.806-.775-3.039-2.482-3.039-1.306 0-2.03.831-2.369 1.633-.126.288-.107.689-.107 1.09v7.216H7.909s.064-12.223 0-13.336h4.914v2.094c.291-.915 1.861-2.221 4.367-2.221 3.109 0 5.551 1.919 5.551 6.049v7.414z"/></g></symbol><symbol id="icon-mail"><g filter="url(#a)"><path fill-rule="evenodd" fill="#FFF" d="M15.242 7.587l7.473-6.3v15.176l-7.473-8.876zM.286.485h22.373L11.473 9.853.286.485zM.2 16.463V1.287l7.474 6.3L.2 16.463zm11.27-5.693l3.281-2.761 7.129 8.462H1.065l7.129-8.379 3.276 2.678z"/></g></symbol><symbol id="icon-pinterest"><g filter="url(#a)"><path fill-rule="evenodd" fill="#FFF" d="M9.133.358C3.526.358.7 4.745.7 8.402c0 2.216.768 4.186 2.416 4.92.27.121.512.005.591-.322.054-.226.183-.796.241-1.033.079-.323.048-.435-.17-.718-.475-.611-.779-1.404-.779-2.526 0-3.254 2.232-6.167 5.81-6.167 3.17 0 4.911 2.113 4.911 4.935 0 3.713-1.506 6.848-3.742 6.848-1.234 0-2.159-1.115-1.862-2.482.354-1.63 1.042-3.391 1.042-4.569 0-1.055-.519-1.934-1.592-1.934-1.262 0-2.276 1.425-2.276 3.334 0 1.215.376 2.037.376 2.037l-1.518 7.018c-.45 2.083-.067 4.636-.035 4.894a.154.154 0 00.281.073c.116-.166 1.619-2.19 2.13-4.214.145-.572.83-3.539.83-3.539.41.853 1.609 1.605 2.883 1.605 3.794 0 6.367-3.774 6.367-8.825 0-3.821-2.965-7.379-7.471-7.379z"/></g></symbol><symbol id="icon-twitter"><g filter="url(#a)"><path fill-rule="evenodd" fill="#FFF" d="M22.942 2.324a9.912 9.912 0 01-2.646.668c.952-.525 1.682-1.356 2.025-2.346a9.7 9.7 0 01-2.926 1.028C18.556.849 17.357.335 16.032.335c-2.543 0-4.606 1.899-4.606 4.241 0 .333.039.656.118.966-3.829-.178-7.223-1.864-9.497-4.433a3.991 3.991 0 00-.624 2.136c0 1.47.814 2.768 2.051 3.529a4.927 4.927 0 01-2.089-.529v.053c0 2.054 1.588 3.769 3.698 4.158a4.896 4.896 0 01-1.215.149 4.92 4.92 0 01-.866-.076c.585 1.685 2.287 2.912 4.303 2.945-1.577 1.138-3.564 1.816-5.722 1.816-.372 0-.74-.019-1.099-.059a13.884 13.884 0 007.062 1.906c8.477 0 13.11-6.463 13.11-12.069 0-.184-.004-.367-.013-.548a8.975 8.975 0 002.299-2.196"/></g></symbol><symbol id="icon-youtube"><g filter="url(#a)"><path fill-rule="evenodd" fill="#FFF" d="M16.062 8.255l-7.494 4.218V4.037l7.494 4.218zm6.544 3.304V3.935s0-3.674-3.869-3.674H4.028S.162.261.162 3.935v7.624s0 3.673 3.866 3.673h14.709s3.869 0 3.869-3.673"/></g></symbol></svg>