<svg
 xmlns="http://www.w3.org/2000/svg"
 xmlns:xlink="http://www.w3.org/1999/xlink"
 width="17px" height="23px">
<defs>
<filter id="Filter_0">
    <feFlood flood-color="rgb(255, 38, 45)" flood-opacity="1" result="floodOut" />
    <feComposite operator="atop" in="floodOut" in2="SourceGraphic" result="compOut" />
    <feBlend mode="normal" in="compOut" in2="SourceGraphic" />
</filter>

</defs>
<g filter="url(#Filter_0)">
<path fill-rule="evenodd"  fill="rgb(255, 255, 255)"
 d="M9.133,0.358 C3.526,0.358 0.700,4.745 0.700,8.402 C0.700,10.618 1.468,12.588 3.116,13.322 C3.386,13.443 3.628,13.327 3.707,13.000 C3.761,12.774 3.890,12.204 3.948,11.967 C4.027,11.644 3.996,11.532 3.778,11.249 C3.303,10.638 2.999,9.845 2.999,8.723 C2.999,5.469 5.231,2.556 8.809,2.556 C11.979,2.556 13.720,4.669 13.720,7.491 C13.720,11.204 12.214,14.339 9.978,14.339 C8.744,14.339 7.819,13.224 8.116,11.857 C8.470,10.227 9.158,8.466 9.158,7.288 C9.158,6.233 8.639,5.354 7.566,5.354 C6.304,5.354 5.290,6.779 5.290,8.688 C5.290,9.903 5.666,10.725 5.666,10.725 C5.666,10.725 4.375,16.697 4.148,17.743 C3.698,19.826 4.081,22.379 4.113,22.637 C4.132,22.790 4.312,22.826 4.394,22.710 C4.510,22.544 6.013,20.520 6.524,18.496 C6.669,17.924 7.354,14.957 7.354,14.957 C7.764,15.810 8.963,16.562 10.237,16.562 C14.031,16.562 16.604,12.788 16.604,7.737 C16.604,3.916 13.639,0.358 9.133,0.358 Z"/>
</g>
</svg>
