<svg
 xmlns="http://www.w3.org/2000/svg"
 xmlns:xlink="http://www.w3.org/1999/xlink"
 width="24px" height="24px">
<defs>
<filter id="Filter_0">
    <feFlood flood-color="rgb(200, 143, 111)" flood-opacity="1" result="floodOut" />
    <feComposite operator="atop" in="floodOut" in2="SourceGraphic" result="compOut" />
    <feBlend mode="normal" in="compOut" in2="SourceGraphic" />
</filter>

</defs>
<g filter="url(#Filter_0)">
<path fill-rule="evenodd"  fill="rgb(255, 255, 255)"
 d="M18.991,0.950 L5.100,0.950 C2.686,0.950 0.723,2.905 0.723,5.309 L0.723,9.913 L0.723,19.146 C0.723,21.550 2.686,23.505 5.100,23.505 L18.991,23.505 C21.405,23.505 23.368,21.550 23.368,19.146 L23.368,9.913 L23.368,5.309 C23.368,2.905 21.405,0.950 18.991,0.950 ZM20.531,3.340 L21.000,3.337 L21.000,3.799 L21.000,6.888 L17.419,6.899 L17.406,3.349 L20.531,3.340 ZM8.893,9.837 C9.494,9.008 10.470,8.465 11.574,8.465 C12.677,8.465 13.653,9.008 14.254,9.837 C14.647,10.379 14.881,11.041 14.881,11.758 C14.881,13.574 13.397,15.051 11.574,15.051 C9.750,15.051 8.267,13.574 8.267,11.758 C8.267,11.041 8.501,10.379 8.893,9.837 ZM21.486,19.239 C21.486,20.387 19.822,21.624 18.650,21.624 L4.771,21.630 C3.576,21.630 2.610,20.925 2.610,19.745 L2.605,10.353 L6.384,10.348 C6.092,11.057 5.524,11.834 5.524,12.644 C5.524,16.009 8.631,18.394 12.045,18.394 C15.460,18.394 17.681,15.853 17.681,12.581 C17.681,11.793 17.519,11.042 17.235,10.353 L21.486,10.353 L21.486,19.239 Z"/>
</g>
</svg>
