<svg
 xmlns="http://www.w3.org/2000/svg"
 xmlns:xlink="http://www.w3.org/1999/xlink"
 width="23px" height="21px">
<defs>
<filter id="Filter_0">
    <feFlood flood-color="rgb(46, 134, 196)" flood-opacity="1" result="floodOut" />
    <feComposite operator="atop" in="floodOut" in2="SourceGraphic" result="compOut" />
    <feBlend mode="normal" in="compOut" in2="SourceGraphic" />
</filter>

</defs>
<g filter="url(#Filter_0)">
<path fill-rule="evenodd"  fill="rgb(255, 255, 255)"
 d="M5.510,20.138 L0.895,20.138 L0.895,6.804 L5.510,6.804 L5.510,20.138 ZM3.084,5.136 L3.051,5.136 C1.381,5.136 0.298,4.117 0.298,2.825 C0.298,1.509 1.414,0.510 3.117,0.510 C4.819,0.510 5.867,1.506 5.900,2.822 C5.900,4.114 4.819,5.136 3.084,5.136 ZM22.741,20.111 L17.781,20.111 L17.781,13.211 C17.781,11.405 17.006,10.172 15.299,10.172 C13.993,10.172 13.269,11.003 12.930,11.805 C12.804,12.093 12.823,12.494 12.823,12.895 L12.823,20.111 L7.909,20.111 C7.909,20.111 7.973,7.888 7.909,6.775 L12.823,6.775 L12.823,8.869 C13.114,7.954 14.684,6.648 17.190,6.648 C20.299,6.648 22.741,8.567 22.741,12.697 L22.741,20.111 Z"/>
</g>
</svg>
