<svg
 xmlns="http://www.w3.org/2000/svg"
 xmlns:xlink="http://www.w3.org/1999/xlink"
 width="23px" height="18px">
<defs>
<filter id="Filter_0">
    <feFlood flood-color="rgb(49, 186, 226)" flood-opacity="1" result="floodOut" />
    <feComposite operator="atop" in="floodOut" in2="SourceGraphic" result="compOut" />
    <feBlend mode="normal" in="compOut" in2="SourceGraphic" />
</filter>

</defs>
<g filter="url(#Filter_0)">
<path fill-rule="evenodd"  fill="rgb(255, 255, 255)"
 d="M22.942,2.324 C22.116,2.660 21.227,2.889 20.296,2.992 C21.248,2.467 21.978,1.636 22.321,0.646 C21.431,1.132 20.446,1.484 19.395,1.674 C18.556,0.849 17.357,0.335 16.032,0.335 C13.489,0.335 11.426,2.234 11.426,4.576 C11.426,4.909 11.465,5.232 11.544,5.542 C7.715,5.364 4.321,3.678 2.047,1.109 C1.651,1.738 1.423,2.467 1.423,3.245 C1.423,4.715 2.237,6.013 3.474,6.774 C2.718,6.753 2.007,6.560 1.385,6.245 L1.385,6.298 C1.385,8.352 2.973,10.067 5.083,10.456 C4.696,10.555 4.289,10.605 3.868,10.605 C3.571,10.605 3.282,10.579 3.002,10.529 C3.587,12.214 5.289,13.441 7.305,13.474 C5.728,14.612 3.741,15.290 1.583,15.290 C1.211,15.290 0.843,15.271 0.484,15.231 C2.523,16.433 4.945,17.137 7.546,17.137 C16.023,17.137 20.656,10.674 20.656,5.068 C20.656,4.884 20.652,4.701 20.643,4.520 C21.544,3.921 22.326,3.174 22.942,2.324 "/>
</g>
</svg>
