<svg
 xmlns="http://www.w3.org/2000/svg"
 xmlns:xlink="http://www.w3.org/1999/xlink"
 width="28px" height="17px">
<defs>
<filter id="Filter_0">
    <feFlood flood-color="rgb(218, 71, 53)" flood-opacity="1" result="floodOut" />
    <feComposite operator="atop" in="floodOut" in2="SourceGraphic" result="compOut" />
    <feBlend mode="normal" in="compOut" in2="SourceGraphic" />
</filter>

</defs>
<g filter="url(#Filter_0)">
<path fill-rule="evenodd"  fill="rgb(255, 255, 255)"
 d="M24.438,9.428 L24.438,12.315 L22.315,12.315 L22.315,9.428 L19.258,9.428 L19.258,7.423 L22.315,7.423 L22.315,4.616 L24.438,4.616 L24.438,7.423 L27.409,7.423 L27.409,9.428 L24.438,9.428 ZM8.985,16.967 C4.249,16.967 0.409,13.340 0.409,8.867 C0.409,4.393 4.249,0.767 8.985,0.767 C11.207,0.767 13.232,1.565 14.755,2.875 C12.961,4.476 13.020,4.571 12.314,5.237 C11.433,4.548 10.472,4.054 8.985,4.054 C6.171,4.054 3.975,6.209 3.975,8.867 C3.975,11.524 6.171,13.679 8.985,13.679 C11.765,13.679 12.894,12.546 13.621,10.467 C12.279,10.467 8.985,10.471 8.985,10.471 L8.985,7.263 C8.985,7.263 15.545,7.263 17.221,7.263 C17.794,11.144 16.064,16.967 8.985,16.967 Z"/>
</g>
</svg>
